{"title":"Jumper (película)(spanish)(latino).avi","uid":7566449,"size":739782656,"categoryP":"video","categoryS":"other","magnet":"?xt=urn:btih:a6a2ecead7513f0235bc0dd64dfadd5e7d1a9650&amp;dn=Jumper+%28pel%26iacute%3Bcula%29%28spanish%29%28latino%29.avi&amp;tr=udp%3A%2F%2Ftracker.openbittorrent.com%3A80&amp;tr=udp%3A%2F%2Fopen.demonii.com%3A1337&amp;tr=udp%3A%2F%2Ftracker.coppersurfer.tk%3A6969&amp;tr=udp%3A%2F%2Fexodus.desync.com%3A6969","seeders":0,"leechers":0,"uploader":"hacker1260","files":1,"time":1345876161,"description":"Format                           : AVI\nFormat/Info                      : Audio Video Interleave\nFile size                        : 706 MiB\nDuration                         : 1h 28mn\nOverall bit rate                 : 1 115 Kbps\nWriting application              : VirtualDubMod 1.5.4.1 (build 2178/release)\nWriting library                  : VirtualDubMod build 2178/release\n\nVideo\nID                               : 0\nFormat                           : MPEG-4 Visual\nFormat profile                   : AdvancedSimple@L5\nFormat settings, BVOP            : Yes\nFormat settings, QPel            : No\nFormat settings, GMC             : No warppoints\nFormat settings, Matrix          : Custom\nCodec ID                         : XVID\nCodec ID/Hint                    : XviD\nDuration                         : 1h 28mn\nBit rate                         : 989 Kbps\nWidth                            : 528 pixels\nHeight                           : 400 pixels\nDisplay aspect ratio             : 4:3\nFrame rate                       : 23.976 fps\nResolution                       : 24 bits\nColorimetry                      : 4:2:0\nScan type                        : Progressive\nBits/(Pixel*Frame)               : 0.195\nStream size                      : 626 MiB (89%)\nWriting library                  : XviD 1.2.0.dev47 (UTC 2006-11-01)\n\nAudio\nID                               : 1\nFormat                           : MPEG Audio\nFormat version                   : Version 1\nFormat profile                   : Layer 3\nFormat settings, Mode            : Joint stereo / MS Stereo\nCodec ID                         : 55\nCodec ID/Hint                    : MP3\nDuration                         : 1h 28mn\nBit rate mode                    : Variable\nBit rate                         : 114 Kbps\nNominal bit rate                 : 128 Kbps\nChannel(s)                       : 2 channels\nSampling rate                    : 48.0 KHz\nResolution                       : 16 bits\nStream size                      : 71.9 MiB (10%)\nAlignment                        : Aligned on interleaves\nInterleave, duration             : 24 ms (0.58 video frame)\nInterleave, preload duration     : 200 ms\nWriting library                  : LAME3.97 \nEncoding settings                : -m j -V 4 -q 2 -lowpass 17 --abr 128\nLanguage                         : Spanish\n\n","torrent":{"xt":"urn:btih:a6a2ecead7513f0235bc0dd64dfadd5e7d1a9650","amp;dn":"Jumper+%28pel%26iacute%3Bcula%29%28spanish%29%28latino%29.avi","amp;tr":["udp%3A%2F%2Ftracker.openbittorrent.com%3A80","udp%3A%2F%2Fopen.demonii.com%3A1337","udp%3A%2F%2Ftracker.coppersurfer.tk%3A6969","udp%3A%2F%2Fexodus.desync.com%3A6969"],"infoHash":"a6a2ecead7513f0235bc0dd64dfadd5e7d1a9650","infoHashBuffer":{"type":"Buffer","data":[166,162,236,234,215,81,63,2,53,188,13,214,77,250,221,94,125,26,150,80]},"announce":[],"urlList":[]}}